<svg width="927" height="894" viewBox="0 0 927 894" fill="none" xmlns="http://www.w3.org/2000/svg">
<path d="M341.5 285.5C348.846 271.174 354.32 265.548 367.5 259.5C373.956 257.041 377.879 255.94 386 255C397.842 253.439 403.489 254.311 411.5 259.5C420.199 267.361 424.018 272.567 426 285.5C428.672 296.178 430.907 301.873 437.5 311C443.845 321.099 448.327 325.818 459 331.5C474.013 337.498 481.635 341.563 490.5 353C495.585 363.385 496.583 369.291 494.5 380C492.093 388.154 490.131 391.315 486 395.5C477.396 403.3 471.102 403.982 459 403C448.978 401.817 444.396 400.041 437.5 395.5C430.322 388.713 428.313 385.458 426 380C421.555 369.913 416.109 367.039 404 364C392.604 361.476 387.121 359.805 378.5 356.5C368.689 351.922 364.422 348.748 358 342.5C349.622 332.938 345.913 327.275 341.5 316.5C338.125 303.534 338.228 296.773 341.5 285.5Z" fill="#288224" stroke="#288224" stroke-width="21"/>
<path d="M639 399C599.703 414.486 586.776 446.374 582 475" stroke="#288224" stroke-width="21" stroke-linecap="round"/>
<path d="M339 91C371.924 116.863 391.995 129.891 434.5 147" stroke="#288224" stroke-width="21" stroke-linecap="round"/>
<path d="M339 91C371.924 116.863 391.995 129.891 434.5 147" stroke="black" stroke-opacity="0.01" stroke-width="21" stroke-linecap="round"/>
<path d="M339 91C371.924 116.863 391.995 129.891 434.5 147" stroke="black" stroke-opacity="0.01" stroke-width="21" stroke-linecap="round"/>
<path d="M483 170C528.658 194.634 549.858 222.053 578.5 240.5" stroke="#288224" stroke-width="21" stroke-linecap="round"/>
<path d="M483 170C528.658 194.634 549.858 222.053 578.5 240.5" stroke="black" stroke-opacity="0.01" stroke-width="21" stroke-linecap="round"/>
<path d="M483 170C528.658 194.634 549.858 222.053 578.5 240.5" stroke="black" stroke-opacity="0.01" stroke-width="21" stroke-linecap="round"/>
<path d="M386 74C436.721 111.036 480.778 113.468 520 147" stroke="#288224" stroke-width="21" stroke-linecap="round"/>
<path d="M386 74C436.721 111.036 480.778 113.468 520 147" stroke="black" stroke-opacity="0.01" stroke-width="21" stroke-linecap="round"/>
<path d="M386 74C436.721 111.036 480.778 113.468 520 147" stroke="black" stroke-opacity="0.01" stroke-width="21" stroke-linecap="round"/>
<path d="M562 130C614.024 156.615 655.114 232.998 710 254" stroke="#288224" stroke-width="21" stroke-linecap="round"/>
<path d="M562 130C614.024 156.615 655.114 232.998 710 254" stroke="black" stroke-opacity="0.01" stroke-width="21" stroke-linecap="round"/>
<path d="M562 130C614.024 156.615 655.114 232.998 710 254" stroke="black" stroke-opacity="0.01" stroke-width="21" stroke-linecap="round"/>
<path d="M564 183C584.685 208.401 610 209.5 624 238" stroke="#288224" stroke-width="21" stroke-linecap="round"/>
<path d="M564 183C584.685 208.401 610 209.5 624 238" stroke="black" stroke-opacity="0.01" stroke-width="21" stroke-linecap="round"/>
<path d="M564 183C584.685 208.401 610 209.5 624 238" stroke="black" stroke-opacity="0.01" stroke-width="21" stroke-linecap="round"/>
<path d="M448 63C479 83 498.5 85.5 523 103.5" stroke="#288224" stroke-width="21" stroke-linecap="round"/>
<path d="M448 63C479 83 498.5 85.5 523 103.5" stroke="black" stroke-opacity="0.01" stroke-width="21" stroke-linecap="round"/>
<path d="M448 63C479 83 498.5 85.5 523 103.5" stroke="black" stroke-opacity="0.01" stroke-width="21" stroke-linecap="round"/>
<path d="M650 274C670.685 285.084 683.295 290.667 710 298" stroke="#288224" stroke-width="21" stroke-linecap="round"/>
<path d="M650 274C670.685 285.084 683.295 290.667 710 298" stroke="black" stroke-opacity="0.01" stroke-width="21" stroke-linecap="round"/>
<path d="M650 274C670.685 285.084 683.295 290.667 710 298" stroke="black" stroke-opacity="0.01" stroke-width="21" stroke-linecap="round"/>
<path d="M606 274C628.77 312.62 664.283 332.897 710 340" stroke="#288224" stroke-width="21" stroke-linecap="round"/>
<path d="M606 274C628.77 312.62 664.283 332.897 710 340" stroke="black" stroke-opacity="0.01" stroke-width="21" stroke-linecap="round"/>
<path d="M606 274C628.77 312.62 664.283 332.897 710 340" stroke="black" stroke-opacity="0.01" stroke-width="21" stroke-linecap="round"/>
<path d="M551.5 79.5C605.552 104.19 660.5 157 681 187.5" stroke="#288224" stroke-width="21" stroke-linecap="round"/>
<path d="M551.5 79.5C605.552 104.19 660.5 157 681 187.5" stroke="black" stroke-opacity="0.01" stroke-width="21" stroke-linecap="round"/>
<path d="M551.5 79.5C605.552 104.19 660.5 157 681 187.5" stroke="black" stroke-opacity="0.01" stroke-width="21" stroke-linecap="round"/>
<path d="M680 453L642 539" stroke="#288224" stroke-width="21" stroke-linecap="round"/>
<path d="M680 453L642 539" stroke="black" stroke-opacity="0.01" stroke-width="21" stroke-linecap="round"/>
<path d="M680 453L642 539" stroke="black" stroke-opacity="0.01" stroke-width="21" stroke-linecap="round"/>
<path d="M471 819L483 802" stroke="#288224" stroke-width="21" stroke-linecap="round"/>
<path d="M363 657C380.557 638.407 391.796 632.663 415 633" stroke="#288224" stroke-width="21" stroke-linecap="round"/>
<path d="M392.5 220.5C412.056 222.687 422.755 226.669 441 242.5" stroke="#288224" stroke-width="21" stroke-linecap="round"/>
<path d="M213 396C225.143 428.855 232.865 446.418 248.5 476C278.26 536.375 300.435 568.484 341.5 625.5" stroke="#288224" stroke-width="21" stroke-linecap="round"/>
<path d="M209 348C232.259 351.506 242.723 358.359 258 377C273.724 400.877 277.861 416.145 272.5 448.5" stroke="#288224" stroke-width="21" stroke-linecap="round"/>
<path d="M234 199C221.449 227.715 217.393 239.952 221 262.5C226.688 293.073 236.821 304.047 266 318" stroke="#288224" stroke-width="21" stroke-linecap="round"/>
<path d="M533 416C534.204 454.274 543.825 469.169 558.376 507.52C572.021 550.98 570.804 587.174 594 619" stroke="#288224" stroke-width="19" stroke-linecap="round"/>
<path d="M261.5 156C281.5 187.5 266.015 191.124 273 250.5C277 284.5 303 303.5 313 329.5C323 355.5 328.5 369 322.5 405C316.5 441 323 462 345 474C367 486 420.5 484.5 446 466.5C471.5 448.5 493.5 450 507.5 474C518.7 493.2 524.5 544.333 526 567.5" stroke="#288224" stroke-width="19" stroke-linecap="round"/>
<path d="M538 608C542.779 631.155 561.324 653.648 570 662" stroke="#288224" stroke-width="19" stroke-linecap="round"/>
<path d="M448 549C449.643 585.877 456.018 621.699 459 635" stroke="#288224" stroke-width="19" stroke-linecap="round"/>
<path d="M303 488.5C325.4 508.9 348 519 356.5 521.5C388.527 531.092 412.351 527.913 472.5 496.5" stroke="#288224" stroke-width="19" stroke-linecap="round"/>
<path d="M329.775 544C339.926 552.07 350.66 556.919 354.758 558.334C370.192 563.723 382.157 564.491 413.464 559.084" stroke="#288224" stroke-width="19" stroke-linecap="round"/>
<path d="M359.09 594C366.799 596.435 374.603 597.726 377.541 598.067C388.611 599.37 396.87 599.192 417.777 596.141" stroke="#288224" stroke-width="19" stroke-linecap="round"/>
<path d="M483 536C486.155 578.747 489.442 599.958 498.5 632C512.174 670.753 527.137 677.177 548.5 702" stroke="#288224" stroke-width="19" stroke-linecap="round"/>
<path d="M383 688.5C410.293 668.705 425.818 665.35 454 676.5C486.559 690.646 501.414 705.279 521.5 744" stroke="#288224" stroke-width="19" stroke-linecap="round"/>
<path d="M299.5 124.5C349.655 157.873 379.953 175.505 446 201C512.697 228.461 544.737 250.288 582.5 312.5C603.338 344.74 630.538 361.853 705 380" stroke="#288224" stroke-width="20" stroke-linecap="round" stroke-linejoin="round"/>
<path d="M695 416.5C659.58 426.214 648.247 436.495 634.5 458.5C612.804 496.378 607.143 518.244 610 558.5" stroke="#288224" stroke-width="20" stroke-linecap="round" stroke-linejoin="round"/>
<path d="M578 362C578 376.359 565.912 388 551 388C536.088 388 524 376.359 524 362C524 347.641 536.088 336 551 336C565.912 336 578 347.641 578 362Z" fill="#288224"/>
<path d="M510 286C510 300.359 497.912 312 483 312C468.088 312 456 300.359 456 286C456 271.641 468.088 260 483 260C497.912 260 510 271.641 510 286Z" fill="#288224"/>
<path d="M408 422C408 436.359 395.912 448 381 448C366.088 448 354 436.359 354 422C354 407.641 366.088 396 381 396C395.912 396 408 407.641 408 422Z" fill="#288224"/>
<path d="M354 220C354 234.359 341.912 246 327 246C312.088 246 300 234.359 300 220C300 205.641 312.088 194 327 194C341.912 194 354 205.641 354 220Z" fill="#288224"/>
<path d="M476.141 777.004C462.135 790.138 449.775 789.781 425.731 762.783C401.688 735.785 399.607 725.788 414.776 711.564C429.945 697.34 439.617 697.007 465.186 725.785C490.754 754.563 490.147 763.871 476.141 777.004Z" fill="#288224"/>
</svg>
